<svg width="136" height="184" viewBox="0 0 136 184" fill="none" xmlns="http://www.w3.org/2000/svg">
<path d="M119 0H17C7.61458 0 0 7.72656 0 17.25V166.75C0 176.273 7.61458 184 17 184H119C128.385 184 136 176.273 136 166.75V17.25C136 7.72656 128.385 0 119 0ZM68 46C80.5021 46 90.6667 56.3141 90.6667 69C90.6667 81.6859 80.5021 92 68 92C55.4979 92 45.3333 81.6859 45.3333 69C45.3333 56.3141 55.4979 46 68 46ZM107.667 131.1C107.667 134.909 104.125 138 99.7333 138H36.2667C31.875 138 28.3333 134.909 28.3333 131.1V124.2C28.3333 112.772 38.9938 103.5 52.1333 103.5H53.9042C58.2604 105.333 63.0062 106.375 68 106.375C72.9938 106.375 77.775 105.333 82.0958 103.5H83.8667C97.0063 103.5 107.667 112.772 107.667 124.2V131.1Z" fill="#3A3A3A"/>
</svg>
