<svg width="35" height="38" viewBox="0 0 43 46" fill="none" xmlns="http://www.w3.org/2000/svg">
<path d="M18.6333 17.2499C18.3498 17.2499 18.0727 17.3342 17.837 17.4922C17.6013 17.6501 17.4176 17.8746 17.3091 18.1373C17.2006 18.4 17.1722 18.689 17.2275 18.9679C17.2828 19.2467 17.4194 19.5028 17.6198 19.7039C17.8203 19.9049 18.0757 20.0418 18.3537 20.0973C18.6317 20.1528 18.9199 20.1243 19.1818 20.0155C19.4438 19.9067 19.6676 19.7224 19.8251 19.4861C19.9826 19.2497 20.0667 18.9717 20.0667 18.6874C20.0667 18.3062 19.9157 17.9405 19.6469 17.671C19.3781 17.4014 19.0135 17.2499 18.6333 17.2499ZM40.3573 7.51809L23.1573 0.330624C22.6282 0.13 22.0698 0.0182918 21.5045 0C20.9389 0.0179057 20.3802 0.129311 19.8508 0.329725L2.65077 7.5172C1.86548 7.84338 1.19438 8.39597 0.722494 9.10498C0.250606 9.81399 -0.000842165 10.6475 2.11917e-06 11.5C2.11917e-06 29.3339 10.2573 41.6622 19.8427 45.6692C20.3667 45.8876 20.9285 46 21.496 46C22.0634 46 22.6252 45.8876 23.1492 45.6692C30.8247 42.4609 43 31.3823 43 11.5C43.0005 10.6488 42.7498 9.81646 42.2796 9.10789C41.8093 8.39931 41.1404 7.84616 40.3573 7.51809ZM32.9667 22.9999H31.8809C29.3269 22.9999 28.0476 26.0968 29.8536 27.908L30.6223 28.678C30.8911 28.9476 31.0421 29.3133 31.0421 29.6946C31.0421 30.0759 30.8911 30.4415 30.6223 30.7112C30.3534 30.9808 29.9888 31.1322 29.6086 31.1322C29.2284 31.1322 28.8638 30.9808 28.595 30.7112L27.8273 29.9403C26.0213 28.1291 22.9333 29.412 22.9333 31.9735V33.0624C22.9333 33.4436 22.7823 33.8092 22.5135 34.0788C22.2447 34.3484 21.8801 34.4999 21.5 34.4999C21.1199 34.4999 20.7553 34.3484 20.4865 34.0788C20.2177 33.8092 20.0667 33.4436 20.0667 33.0624V31.9735C20.0667 29.412 16.9787 28.1291 15.1727 29.9403L14.405 30.7112C14.2719 30.8447 14.1139 30.9506 13.9399 31.0228C13.766 31.0951 13.5796 31.1322 13.3914 31.1322C13.2031 31.1322 13.0167 31.0951 12.8428 31.0228C12.6689 30.9506 12.5108 30.8447 12.3777 30.7112C12.2446 30.5777 12.139 30.4192 12.067 30.2448C11.9949 30.0703 11.9579 29.8834 11.9579 29.6946C11.9579 29.5058 11.9949 29.3188 12.067 29.1444C12.139 28.97 12.2446 28.8115 12.3777 28.678L13.1464 27.908C14.9524 26.0968 13.6731 22.9999 11.1191 22.9999H10.0333C9.65319 22.9999 9.28862 22.8485 9.01981 22.5789C8.75101 22.3093 8.6 21.9437 8.6 21.5624C8.6 21.1812 8.75101 20.8155 9.01981 20.5459C9.28862 20.2764 9.65319 20.1249 10.0333 20.1249H11.1191C13.6731 20.1249 14.9524 17.028 13.1464 15.2168L12.3777 14.4468C12.1089 14.1772 11.9579 13.8115 11.9579 13.4302C11.9579 13.0489 12.1089 12.6833 12.3777 12.4137C12.6466 12.144 13.0112 11.9926 13.3914 11.9926C13.7716 11.9926 14.1362 12.144 14.405 12.4137L15.1727 13.1845C16.9787 14.9958 20.0667 13.7128 20.0667 11.1514V10.0625C20.0667 9.68121 20.2177 9.31558 20.4865 9.046C20.7553 8.77641 21.1199 8.62496 21.5 8.62496C21.8801 8.62496 22.2447 8.77641 22.5135 9.046C22.7823 9.31558 22.9333 9.68121 22.9333 10.0625V11.1514C22.9333 13.7128 26.0213 14.9958 27.8273 13.1845L28.595 12.4137C28.8638 12.144 29.2284 11.9926 29.6086 11.9926C29.9888 11.9926 30.3534 12.144 30.6223 12.4137C30.8911 12.6833 31.0421 13.0489 31.0421 13.4302C31.0421 13.8115 30.8911 14.1772 30.6223 14.4468L29.8536 15.2168C28.0476 17.028 29.3269 20.1249 31.8809 20.1249H32.9667C33.3468 20.1249 33.7114 20.2764 33.9802 20.5459C34.249 20.8155 34.4 21.1812 34.4 21.5624C34.4 21.9437 34.249 22.3093 33.9802 22.5789C33.7114 22.8485 33.3468 22.9999 32.9667 22.9999ZM24.3667 22.9999C24.0832 22.9999 23.8061 23.0842 23.5703 23.2422C23.3346 23.4001 23.1509 23.6246 23.0424 23.8873C22.934 24.15 22.9056 24.439 22.9609 24.7178C23.0162 24.9967 23.1527 25.2528 23.3531 25.4539C23.5536 25.6549 23.809 25.7918 24.087 25.8473C24.3651 25.9027 24.6533 25.8743 24.9152 25.7655C25.1771 25.6567 25.4009 25.4724 25.5584 25.236C25.7159 24.9996 25.8 24.7217 25.8 24.4374C25.8 24.0562 25.649 23.6905 25.3802 23.4209C25.1114 23.1514 24.7468 22.9999 24.3667 22.9999Z" fill="white"/>
</svg>
